<?xml version="1.0" encoding="UTF-8"?>
<svg width="486px" height="31px" viewBox="0 0 486 31" version="1.1" xmlns="http://www.w3.org/2000/svg" xmlns:xlink="http://www.w3.org/1999/xlink">
    <!-- Generator: Sketch 42 (36781) - http://www.bohemiancoding.com/sketch -->
    <title>cirs-logo-horizontal</title>
    <desc>Created with Sketch.</desc>
    <defs></defs>
    <g id="Page-1" stroke="none" stroke-width="1" fill="none" fill-rule="evenodd">
        <g id="logo-horizontal" transform="translate(0.000000, -1.000000)">
            <g id="Page-1">
                <g id="logo-horizontal">
                    <rect id="Rectangle" fill="#005D9A" fill-rule="nonzero" x="0.530332248" y="1.68679655" width="485" height="30"></rect>
                    <text id="beta" font-family="HelveticaNeue-Bold, Helvetica Neue" font-size="12" font-weight="bold" fill="#FFFFFF">
                        <tspan x="458.182098" y="12.5024669">beta</tspan>
                    </text>
                    <g id="CIRS" transform="translate(0.530332, 3.218099)" fill-rule="nonzero" fill="#FFFFFF">
                        <path d="M80.9920786,18.313543 L89.275554,18.313543 C89.3104545,21.084955 90.4696713,21.3044136 92.8546443,21.3044136 L103.002521,21.3044136 C104.75472,21.3044136 106.547363,21.121479 106.547363,19.1076241 C106.547363,16.8384163 105.574717,16.6938949 94.9062689,16.6938949 C82.4477862,16.6938949 81.0295884,15.2527732 81.0295884,8.84250535 C81.0295884,4.1265079 81.4757923,0.488281818 91.9224434,0.488281818 L103.485909,0.488281818 C113.035586,0.488281818 113.930277,3.62398875 113.930277,8.19546466 L113.930277,9.02323588 L105.649737,9.02323588 C105.649737,7.11517444 105.42533,6.32361232 101.621507,6.32361232 L92.4462763,6.32361232 C90.578939,6.32361232 89.3104545,6.93444388 89.3104545,8.3399862 C89.3104545,10.6063601 90.3170226,10.6784635 99.1960889,10.6425692 C112.065875,10.6063601 115.05231,11.364547 115.05231,18.9605837 C115.05231,25.9845168 112.586772,27.1343914 101.583997,27.1343914 L91.5486498,27.1343914 C84.0130877,27.1343914 80.9920786,25.767892 80.9920786,20.1129772 L80.9920786,18.313543 Z" id="Fill-41"></path>
                        <path d="M46.8369963,26.8484656 L55.1204718,26.8484656 L55.1204718,20.0798853 L68.1367093,20.0798853 C70.7118408,20.0798853 71.5321645,20.976926 71.5321645,23.7155924 L71.5321645,26.8484656 L79.8123782,26.8484656 L79.8123782,22.4183626 C79.8123782,18.1356147 77.7640151,17.0883849 75.2981514,16.6579691 L75.2981514,16.5858658 C79.1019745,15.7218855 79.9245814,13.6670985 79.9245814,10.1759128 L79.9245814,8.52037034 C79.9245814,3.8377483 78.2072835,0.776978444 71.828329,0.776978444 L46.8369963,0.776978444 L46.8369963,26.8484656 Z M55.1204718,7.25966444 L68.062342,7.25966444 C70.6746571,7.25966444 71.8687744,7.69008027 71.8687744,9.99518226 L71.8687744,10.8591626 C71.8687744,12.7310149 71.0458413,13.597829 68.8073198,13.597829 L55.1204718,13.597829 L55.1204718,7.25966444 Z" id="Fill-40"></path>
                        <polygon id="Fill-39" points="36.6174918 26.8484026 44.8980316 26.8484026 44.8980316 0.77691547 36.6174918 0.77691547"></polygon>
                        <path d="M0.0625957985,9.9230474 C0.0625957985,2.29080165 4.50212893,0.488218844 11.9626712,0.488218844 L21.6963094,0.488218844 C33.4841814,0.488218844 35.0149087,2.93784229 34.939889,10.3204028 L26.6593492,10.3204028 L26.6593492,9.5981102 C26.6593492,7.72625785 25.2408252,7.18721478 22.7808327,7.18721478 L13.7523795,7.18721478 C9.3875398,7.18721478 8.56754228,9.16769438 8.56754228,12.40888 L8.56754228,15.2165011 C8.56754228,18.9964149 9.3875398,20.4378514 13.3035662,20.4378514 L22.1451226,20.4378514 C25.8768615,20.4378514 26.9930236,20.0798538 26.9930236,16.8383534 L35.276499,16.8383534 L35.276499,19.2851431 C35.276499,23.6793519 33.6335685,27.1343285 25.3155188,27.1343285 L11.9626712,27.1343285 C4.50212893,27.1343285 0.0625957985,25.3348943 0.0625957985,17.6994999 L0.0625957985,9.9230474 Z" id="Fill-38"></path>
                    </g>
                    <path d="M135.994337,24.4077556 L137.637693,24.4077556 C138.879347,24.4077556 139.987079,24.2197434 140.960925,23.8437133 C141.934771,23.4676832 142.756441,22.9506496 143.42596,22.2925969 C144.095478,21.6345443 144.60674,20.8531185 144.959759,19.9482961 C145.312778,19.0434737 145.489285,18.0505342 145.489285,16.9694477 C145.489285,15.9118631 145.306691,14.9247989 144.941499,14.0082256 C144.576307,13.0916523 144.058959,12.3043511 143.389441,11.6462985 C142.719922,10.9882458 141.898252,10.4712122 140.924406,10.0951821 C139.95056,9.71915206 138.855,9.53113984 137.637693,9.53113984 L135.994337,9.53113984 L135.994337,24.4077556 Z M128.836607,3.67920094 L139.427126,3.67920094 C141.301779,3.67920094 143.060761,4.04347462 144.704126,4.7720329 C146.34749,5.50059119 147.783891,6.4700292 149.013371,7.68037603 C150.242851,8.89072286 151.210596,10.3008145 151.916634,11.9106933 C152.622672,13.5205721 152.975686,15.2068067 152.975686,16.9694477 C152.975686,18.7085868 152.628759,20.3830707 151.934894,21.9929495 C151.241028,23.6028283 150.27937,25.0187953 149.04989,26.2408931 C147.82041,27.4629908 146.384009,28.4383042 144.740645,29.1668625 C143.09728,29.8954208 141.326125,30.2596945 139.427126,30.2596945 L128.836607,30.2596945 L128.836607,3.67920094 Z M163.529685,12.1750881 L163.529685,30.2596945 L156.919741,30.2596945 L156.919741,12.1750881 L163.529685,12.1750881 Z M156.481513,5.23031727 C156.481513,4.73677779 156.578896,4.27262262 156.773665,3.83783784 C156.968434,3.40305306 157.236238,3.02115323 157.577084,2.69212691 C157.91793,2.36310059 158.313548,2.10458378 158.763952,1.91656874 C159.214356,1.7285537 159.695185,1.63454759 160.206454,1.63454759 C160.717723,1.63454759 161.198552,1.7285537 161.648955,1.91656874 C162.099359,2.10458378 162.494978,2.36310059 162.835824,2.69212691 C163.17667,3.02115323 163.444473,3.40305306 163.639243,3.83783784 C163.834012,4.27262262 163.931395,4.73677779 163.931395,5.23031727 C163.931395,5.72385676 163.834012,6.18801193 163.639243,6.62279671 C163.444473,7.05758149 163.17667,7.43948132 162.835824,7.76850764 C162.494978,8.09753396 162.099359,8.35605076 161.648955,8.5440658 C161.198552,8.73208085 160.717723,8.82608696 160.206454,8.82608696 C159.695185,8.82608696 159.214356,8.73208085 158.763952,8.5440658 C158.313548,8.35605076 157.91793,8.09753396 157.577084,7.76850764 C157.236238,7.43948132 156.968434,7.05758149 156.773665,6.62279671 C156.578896,6.18801193 156.481513,5.72385676 156.481513,5.23031727 Z M180.474515,16.8284371 C179.257208,16.2173882 178.064265,15.9118684 176.89565,15.9118684 C176.286997,15.9118684 175.793995,16.029376 175.41663,16.2643948 C175.039264,16.4994136 174.850585,16.8166843 174.850585,17.2162162 C174.850585,17.4277331 174.881017,17.5981192 174.941882,17.7273796 C175.002748,17.8566399 175.136649,17.9800229 175.343592,18.0975323 C175.550534,18.2150417 175.854856,18.3207986 176.256567,18.4148061 C176.658279,18.5088136 177.187799,18.6263213 177.845145,18.7673325 C179.671106,19.1198608 181.034469,19.7485266 181.935276,20.653349 C182.836084,21.5581714 183.28648,22.7156216 183.28648,24.1257344 C183.28648,25.183319 183.067368,26.1351309 182.629138,26.9811986 C182.190907,27.8272663 181.582263,28.5381875 180.803186,29.1139835 C180.02411,29.6897796 179.086798,30.1363086 177.991221,30.453584 C176.895645,30.7708594 175.690529,30.9294947 174.375837,30.9294947 C171.843839,30.9294947 169.348396,30.2361996 166.889436,28.8495887 L169.299692,24.3372503 C171.149999,25.5593481 172.902895,26.1703878 174.558432,26.1703878 C175.167086,26.1703878 175.666174,26.0411294 176.055713,25.7826087 C176.445251,25.524088 176.640017,25.1950666 176.640017,24.7955347 C176.640017,24.5605159 176.609585,24.3666283 176.548719,24.213866 C176.487854,24.0611038 176.360039,23.9200947 176.16527,23.7908343 C175.970501,23.661574 175.684438,23.5440663 175.307072,23.4383079 C174.929707,23.3325494 174.436705,23.2209172 173.828052,23.1034078 C171.782976,22.7038758 170.352662,22.1104622 169.537066,21.3231492 C168.72147,20.5358363 168.313678,19.4488906 168.313678,18.0622797 C168.313678,17.0516988 168.508445,16.1410146 168.897983,15.3301998 C169.287521,14.5193849 169.847474,13.8319652 170.577858,13.2679201 C171.308242,12.703875 172.190777,12.2690967 173.225488,11.9635723 C174.260199,11.6580478 175.410537,11.5052879 176.676536,11.5052879 C178.745958,11.5052879 180.754485,11.8930631 182.702176,12.6686251 L180.474515,16.8284371 Z M194.534342,17.4982374 L194.534342,30.2596945 L187.924397,30.2596945 L187.924397,17.4982374 L185.733255,17.4982374 L185.733255,12.1750881 L187.924397,12.1750881 L187.924397,6.74618096 L194.534342,6.74618096 L194.534342,12.1750881 L198.295802,12.1750881 L198.295802,17.4982374 L194.534342,17.4982374 Z M207.352521,21.1292597 C207.352521,21.7403086 207.468163,22.2984699 207.699452,22.8037603 C207.93074,23.3090507 208.235062,23.7497043 208.612428,24.1257344 C208.989793,24.5017645 209.44019,24.7955336 209.963632,25.0070505 C210.487074,25.2185675 211.04094,25.3243243 211.625247,25.3243243 C212.209555,25.3243243 212.763421,25.2185675 213.286863,25.0070505 C213.810305,24.7955336 214.260702,24.5017645 214.638067,24.1257344 C215.015433,23.7497043 215.319755,23.3090507 215.551043,22.8037603 C215.782332,22.2984699 215.897974,21.7520593 215.897974,21.1645123 C215.897974,20.6004672 215.782332,20.0658075 215.551043,19.560517 C215.319755,19.0552266 215.015433,18.614573 214.638067,18.2385429 C214.260702,17.8625128 213.810305,17.5687437 213.286863,17.3572268 C212.763421,17.1457099 212.209555,17.039953 211.625247,17.039953 C211.04094,17.039953 210.487074,17.1457099 209.963632,17.3572268 C209.44019,17.5687437 208.989793,17.8625128 208.612428,18.2385429 C208.235062,18.614573 207.93074,19.0493512 207.699452,19.5428907 C207.468163,20.0364302 207.352521,20.5652146 207.352521,21.1292597 Z M200.377386,21.0587544 C200.377386,19.7191472 200.657363,18.4676909 201.217324,17.3043478 C201.777285,16.1410048 202.55635,15.1304391 203.554542,14.2726204 C204.552734,13.4148018 205.73959,12.7391329 207.115147,12.2455934 C208.490704,11.7520539 209.994056,11.5052879 211.625247,11.5052879 C213.232093,11.5052879 214.723272,11.7461786 216.098829,12.2279671 C217.474386,12.7097556 218.667329,13.3795492 219.677694,14.2373678 C220.688058,15.0951864 221.47321,16.1175029 222.033171,17.3043478 C222.593132,18.4911928 222.873109,19.8014029 222.873109,21.2350176 C222.873109,22.6686323 222.587046,23.9788425 222.014911,25.1656874 C221.442777,26.3525324 220.657626,27.3748488 219.659434,28.2326675 C218.661242,29.0904861 217.462213,29.7544042 216.06231,30.2244418 C214.662406,30.6944794 213.146882,30.9294947 211.51569,30.9294947 C209.908845,30.9294947 208.423753,30.6944794 207.060369,30.2244418 C205.696985,29.7544042 204.522301,29.0846107 203.536282,28.2150411 C202.550264,27.3454716 201.777285,26.305529 201.217324,25.0951821 C200.657363,23.8848353 200.377386,22.5393729 200.377386,21.0587544 Z M226.671088,12.1750881 L233.281032,12.1750881 L233.281032,15.1363102 C233.98707,14.0552237 234.851345,13.2267949 235.873883,12.6509988 C236.896421,12.0752028 238.089364,11.787309 239.452748,11.787309 L240.018793,11.787309 C240.225735,11.787309 240.463107,11.8108106 240.730914,11.8578143 L240.730914,17.9565217 C239.854453,17.5334879 238.904968,17.3219741 237.88243,17.3219741 C236.348623,17.3219741 235.198285,17.7626278 234.431382,18.6439483 C233.664478,19.5252688 233.281032,20.8119774 233.281032,22.5041128 L233.281032,30.2596945 L226.671088,30.2596945 L226.671088,12.1750881 Z M251.759661,17.4982374 L251.759661,30.2596945 L245.149717,30.2596945 L245.149717,17.4982374 L242.958575,17.4982374 L242.958575,12.1750881 L245.149717,12.1750881 L245.149717,6.74618096 L251.759661,6.74618096 L251.759661,12.1750881 L255.521121,12.1750881 L255.521121,17.4982374 L251.759661,17.4982374 Z M265.125626,12.1750881 L265.125626,30.2596945 L258.515682,30.2596945 L258.515682,12.1750881 L265.125626,12.1750881 Z M258.077453,5.23031727 C258.077453,4.73677779 258.174836,4.27262262 258.369605,3.83783784 C258.564375,3.40305306 258.832178,3.02115323 259.173024,2.69212691 C259.51387,2.36310059 259.909489,2.10458378 260.359893,1.91656874 C260.810296,1.7285537 261.291125,1.63454759 261.802394,1.63454759 C262.313663,1.63454759 262.794492,1.7285537 263.244896,1.91656874 C263.6953,2.10458378 264.090918,2.36310059 264.431764,2.69212691 C264.77261,3.02115323 265.040414,3.40305306 265.235183,3.83783784 C265.429952,4.27262262 265.527335,4.73677779 265.527335,5.23031727 C265.527335,5.72385676 265.429952,6.18801193 265.235183,6.62279671 C265.040414,7.05758149 264.77261,7.43948132 264.431764,7.76850764 C264.090918,8.09753396 263.6953,8.35605076 263.244896,8.5440658 C262.794492,8.73208085 262.313663,8.82608696 261.802394,8.82608696 C261.291125,8.82608696 260.810296,8.73208085 260.359893,8.5440658 C259.909489,8.35605076 259.51387,8.09753396 259.173024,7.76850764 C258.832178,7.43948132 258.564375,7.05758149 258.369605,6.62279671 C258.174836,6.18801193 258.077453,5.72385676 258.077453,5.23031727 Z M275.89874,21.1292597 C275.89874,21.7403086 276.014382,22.2984699 276.24567,22.8037603 C276.476959,23.3090507 276.781281,23.7497043 277.158646,24.1257344 C277.536011,24.5017645 277.986408,24.7955336 278.50985,25.0070505 C279.033292,25.2185675 279.587159,25.3243243 280.171466,25.3243243 C280.755774,25.3243243 281.30964,25.2185675 281.833082,25.0070505 C282.356524,24.7955336 282.806921,24.5017645 283.184286,24.1257344 C283.561651,23.7497043 283.865973,23.3090507 284.097262,22.8037603 C284.32855,22.2984699 284.444193,21.7520593 284.444193,21.1645123 C284.444193,20.6004672 284.32855,20.0658075 284.097262,19.560517 C283.865973,19.0552266 283.561651,18.614573 283.184286,18.2385429 C282.806921,17.8625128 282.356524,17.5687437 281.833082,17.3572268 C281.30964,17.1457099 280.755774,17.039953 280.171466,17.039953 C279.587159,17.039953 279.033292,17.1457099 278.50985,17.3572268 C277.986408,17.5687437 277.536011,17.8625128 277.158646,18.2385429 C276.781281,18.614573 276.476959,19.0493512 276.24567,19.5428907 C276.014382,20.0364302 275.89874,20.5652146 275.89874,21.1292597 Z M268.923605,21.0587544 C268.923605,19.7191472 269.203581,18.4676909 269.763543,17.3043478 C270.323504,16.1410048 271.102569,15.1304391 272.100761,14.2726204 C273.098952,13.4148018 274.285809,12.7391329 275.661366,12.2455934 C277.036923,11.7520539 278.540275,11.5052879 280.171466,11.5052879 C281.778311,11.5052879 283.26949,11.7461786 284.645047,12.2279671 C286.020604,12.7097556 287.213547,13.3795492 288.223912,14.2373678 C289.234277,15.0951864 290.019428,16.1175029 290.57939,17.3043478 C291.139351,18.4911928 291.419327,19.8014029 291.419327,21.2350176 C291.419327,22.6686323 291.133264,23.9788425 290.56113,25.1656874 C289.988996,26.3525324 289.203844,27.3748488 288.205653,28.2326675 C287.207461,29.0904861 286.008431,29.7544042 284.608528,30.2244418 C283.208625,30.6944794 281.693101,30.9294947 280.061909,30.9294947 C278.455064,30.9294947 276.969971,30.6944794 275.606587,30.2244418 C274.243204,29.7544042 273.06852,29.0846107 272.082501,28.2150411 C271.096482,27.3454716 270.323504,26.305529 269.763543,25.0951821 C269.203581,23.8848353 268.923605,22.5393729 268.923605,21.0587544 Z M295.217306,12.1750881 L301.827251,12.1750881 L301.827251,14.46651 C302.728058,13.4089254 303.641025,12.6980042 304.566178,12.333725 C305.491331,11.9694459 306.574718,11.787309 307.816372,11.787309 C309.131063,11.787309 310.257055,11.9929474 311.194382,12.4042303 C312.131708,12.8155132 312.929032,13.397176 313.586378,14.1492362 C314.121993,14.7602851 314.48718,15.4418294 314.681949,16.1938895 C314.876718,16.9459497 314.974101,17.8037555 314.974101,18.7673325 L314.974101,30.2596945 L308.364157,30.2596945 L308.364157,21.1292597 C308.364157,20.2361882 308.297206,19.5135163 308.163302,18.9612221 C308.029399,18.4089279 307.792027,17.9682743 307.451181,17.6392479 C307.159028,17.3572254 306.83036,17.1574624 306.465167,17.039953 C306.099975,16.9224436 305.710443,16.8636898 305.296559,16.8636898 C304.176636,16.8636898 303.318447,17.1868358 302.721967,17.8331375 C302.125486,18.4794392 301.827251,19.4018741 301.827251,20.60047 L301.827251,30.2596945 L295.217306,30.2596945 L295.217306,12.1750881 Z M352.333069,12.5628672 C350.677531,10.6122112 348.632486,9.63689777 346.197872,9.63689777 C345.126642,9.63689777 344.134551,9.82490999 343.221571,10.2009401 C342.308591,10.5769701 341.523439,11.0881284 340.866093,11.7344301 C340.208748,12.3807318 339.6914,13.1504068 339.314035,14.0434783 C338.936669,14.9365497 338.74799,15.9001123 338.74799,16.9341951 C338.74799,17.9917797 338.936669,18.9670931 339.314035,19.8601645 C339.6914,20.753236 340.214834,21.5287864 340.884353,22.186839 C341.553872,22.8448917 342.339023,23.3619253 343.23983,23.7379553 C344.140638,24.1139854 345.114469,24.3019976 346.161353,24.3019976 C348.44989,24.3019976 350.507108,23.3619365 352.333069,21.4817861 L352.333069,29.6603995 L351.602688,29.907168 C350.507112,30.2831981 349.484589,30.5593411 348.53509,30.7356052 C347.58559,30.9118693 346.648278,31 345.723124,31 C343.824125,31 342.004279,30.6533525 340.263529,29.960047 C338.52278,29.2667415 336.988996,28.2914281 335.662132,27.0340776 C334.335267,25.776727 333.270139,24.28438 332.466717,22.5569918 C331.663294,20.8296036 331.261589,18.943606 331.261589,16.8989424 C331.261589,14.8542788 331.657207,12.980032 332.448457,11.2761457 C333.239707,9.5722594 334.298748,8.10341392 335.625613,6.86956522 C336.952477,5.63571651 338.492348,4.67215388 340.24527,3.97884841 C341.998192,3.28554295 343.836298,2.93889542 345.759643,2.93889542 C346.85522,2.93889542 347.93252,3.05052767 348.991578,3.27379553 C350.050635,3.4970634 351.164454,3.84371093 352.333069,4.31374853 L352.333069,12.5628672 Z M356.240605,1 L362.850549,1 L362.850549,14.46651 C363.751357,13.4089254 364.664323,12.6980042 365.589477,12.333725 C366.51463,11.9694459 367.598017,11.787309 368.83967,11.787309 C371.201246,11.787309 372.984574,12.4159749 374.189708,13.6733255 C375.394842,14.9306761 375.9974,16.6286615 375.9974,18.7673325 L375.9974,30.2596945 L369.387456,30.2596945 L369.387456,21.1292597 C369.387456,20.2126864 369.314418,19.4723882 369.168341,18.9083431 C369.022265,18.344298 368.778807,17.9095197 368.437961,17.6039953 C367.853653,17.1104558 367.147626,16.8636898 366.319857,16.8636898 C365.199935,16.8636898 364.341746,17.1868358 363.745266,17.8331375 C363.148785,18.4794392 362.850549,19.4018741 362.850549,20.60047 L362.850549,30.2596945 L356.240605,30.2596945 L356.240605,1 Z M394.183877,18.5910693 C393.964761,17.6979979 393.514365,16.9812013 392.832673,16.440658 C392.150981,15.9001148 391.323224,15.6298472 390.349379,15.6298472 C389.326841,15.6298472 388.492998,15.888364 387.847825,16.4054054 C387.202652,16.9224468 386.794861,17.6509941 386.624438,18.5910693 L394.183877,18.5910693 Z M386.441842,22.2925969 C386.441842,25.0423169 387.78086,26.4171563 390.458936,26.4171563 C391.895358,26.4171563 392.978745,25.8531196 393.709129,24.7250294 L400.09996,24.7250294 C398.809614,28.8613603 395.583799,30.9294947 390.422417,30.9294947 C388.839917,30.9294947 387.391344,30.7003548 386.076652,30.2420682 C384.76196,29.7837815 383.635968,29.1316141 382.698642,28.2855464 C381.761315,27.4394787 381.037029,26.428913 380.52576,25.253819 C380.014491,24.078725 379.75886,22.7626395 379.75886,21.3055229 C379.75886,19.8014026 380.002318,18.4441894 380.489241,17.2338425 C380.976163,16.0234957 381.670018,14.9953039 382.570825,14.1492362 C383.471633,13.3031685 384.561106,12.6510011 385.839278,12.1927145 C387.117451,11.7344278 388.559938,11.5052879 390.166783,11.5052879 C391.749283,11.5052879 393.173511,11.7344278 394.43951,12.1927145 C395.705509,12.6510011 396.776723,13.3149193 397.653185,14.1844888 C398.529646,15.0540584 399.199154,16.1175025 399.661731,17.3748531 C400.124308,18.6322037 400.355593,20.0481707 400.355593,21.6227967 L400.355593,22.2925969 L386.441842,22.2925969 Z M418.249917,18.027027 C417.105649,17.2749669 415.949224,16.8989424 414.780609,16.8989424 C414.14761,16.8989424 413.557225,17.0046993 413.009437,17.2162162 C412.461648,17.4277331 411.980819,17.7273776 411.566935,18.1151586 C411.15305,18.5029397 410.830469,18.9612194 410.599181,19.4900118 C410.367892,20.0188041 410.25225,20.6122176 410.25225,21.2702703 C410.25225,21.904821 410.367892,22.4864838 410.599181,23.0152761 C410.830469,23.5440684 411.146964,24.0023482 411.548675,24.3901293 C411.950387,24.7779103 412.431216,25.0775548 412.991177,25.2890717 C413.551138,25.5005886 414.14761,25.6063455 414.780609,25.6063455 C416.022263,25.6063455 417.178687,25.1950687 418.249917,24.3725029 L418.249917,29.8014101 C416.618726,30.4829646 415.072769,30.8237368 413.612,30.8237368 C412.248617,30.8237368 410.952204,30.6004723 409.722724,30.1539365 C408.493244,29.7074008 407.409857,29.0669842 406.47253,28.2326675 C405.535204,27.3983507 404.786571,26.3995358 404.22661,25.2361927 C403.666649,24.0728496 403.386672,22.7743902 403.386672,21.3407756 C403.386672,19.9071609 403.654476,18.5969507 404.190091,17.4101058 C404.725706,16.2232608 405.456079,15.2009444 406.381233,14.3431257 C407.306386,13.4853071 408.408032,12.8155136 409.686205,12.333725 C410.964377,11.8519365 412.333827,11.6110458 413.794596,11.6110458 C415.401441,11.6110458 416.886533,11.9400672 418.249917,12.5981199 L418.249917,18.027027 Z M429.534297,1 L429.534297,18.6968273 L436.472913,12.1750881 L445.529632,12.1750881 L436.144242,20.5299647 L446.077418,30.2596945 L436.801584,30.2596945 L429.534297,22.8918919 L429.534297,30.2596945 L422.924353,30.2596945 L422.924353,1 L429.534297,1 Z" id="Distortion-Check" fill="#FFFFFF" fill-rule="nonzero"></path>
                </g>
            </g>
        </g>
    </g>
</svg>