<?xml version="1.0" encoding="UTF-8"?>
<svg width="300px" height="102px" viewBox="0 0 300 102" version="1.1" xmlns="http://www.w3.org/2000/svg" xmlns:xlink="http://www.w3.org/1999/xlink">
    <!-- Generator: Sketch 42 (36781) - http://www.bohemiancoding.com/sketch -->
    <title>Group</title>
    <desc>Created with Sketch.</desc>
    <defs></defs>
    <g id="Page-1" stroke="none" stroke-width="1" fill="none" fill-rule="evenodd">
        <g id="Group" fill="#005D9A">
            <g id="CIRS" fill-rule="nonzero">
                <path d="M210.975175,43.743443 L232.556296,43.743443 C232.647222,50.4593068 235.667356,50.9911128 241.880978,50.9911128 L268.319464,50.9911128 C272.884505,50.9911128 277.55492,50.5478139 277.55492,45.6677111 C277.55492,40.1688211 275.020864,39.8186073 247.226121,39.8186073 C214.767762,39.8186073 211.0729,36.3263887 211.0729,20.7926155 C211.0729,9.3645074 212.235405,0.54812401 239.452294,0.54812401 L269.578845,0.54812401 C294.458828,0.54812401 296.789786,8.1467706 296.789786,19.224665 L296.789786,21.2305735 L275.216313,21.2305735 C275.216313,16.6068363 274.631662,14.6886721 264.721478,14.6886721 L240.817048,14.6886721 C235.952033,14.6886721 232.647222,16.1688783 232.647222,19.5748788 C232.647222,25.0669019 235.269656,25.2416273 258.402483,25.1546461 C291.932419,25.0669019 299.713043,26.9041889 299.713043,45.3113934 C299.713043,62.3322398 293.289525,65.11869 264.623753,65.11869 L238.478441,65.11869 C218.845877,65.11869 210.975175,61.8073007 210.975175,48.1039476 L210.975175,43.743443 Z" id="Fill-41"></path>
                <path d="M121.99019,64.4258161 L143.571309,64.4258161 L143.571309,48.023757 L177.482799,48.023757 C184.191845,48.023757 186.329053,50.1975239 186.329053,56.8340364 L186.329053,64.4258161 L207.901675,64.4258161 L207.901675,53.6905055 C207.901675,43.3122757 202.565031,40.7745612 196.140662,39.7315498 L196.140662,39.5568244 C206.050846,37.4631718 208.194001,32.4838799 208.194001,24.0238143 L208.194001,20.0119975 C208.194001,8.6647665 203.719887,1.24771223 187.100657,1.24771223 L121.99019,1.24771223 L121.99019,64.4258161 Z M143.571309,16.9569737 L177.289048,16.9569737 C184.09497,16.9569737 187.20603,17.9999851 187.20603,23.5858564 L187.20603,25.679509 C187.20603,30.215502 185.062024,32.3160215 179.229956,32.3160215 L143.571309,32.3160215 L143.571309,16.9569737 Z" id="Fill-40"></path>
                <polygon id="Fill-39" points="95.3650898 64.4256635 116.938562 64.4256635 116.938562 1.24755963 95.3650898 1.24755963"></polygon>
                <path d="M0.127816706,23.4110547 C0.127816706,4.916106 11.6942299,0.54797141 31.1313445,0.54797141 L56.4906055,0.54797141 C87.2018076,0.54797141 91.1898449,6.4840564 90.9943946,24.3739518 L69.4209224,24.3739518 L69.4209224,22.623646 C69.4209224,18.087653 65.7252108,16.7814091 59.3161381,16.7814091 L35.7941106,16.7814091 C24.422298,16.7814091 22.2859405,21.5806346 22.2859405,29.4348839 L22.2859405,36.2384919 C22.2859405,45.398222 24.422298,48.8912037 34.6248075,48.8912037 L57.6599086,48.8912037 C67.38229,48.8912037 70.2902516,48.0236807 70.2902516,40.1686685 L91.871372,40.1686685 L91.871372,46.0978866 C91.871372,56.7462159 87.5910088,65.1185374 65.9198114,65.1185374 L31.1313445,65.1185374 C11.6942299,65.1185374 0.127816706,60.7580328 0.127816706,42.2554541 L0.127816706,23.4110547 Z" id="Fill-38"></path>
            </g>
            <path d="M6.76873489,95.1028275 L8.32278117,95.1028275 C9.49695534,95.1028275 10.5444872,94.9186461 11.4654081,94.5502777 C12.386329,94.1819094 13.1633444,93.6754104 13.7964775,93.0307658 C14.4296106,92.3861212 14.9130869,91.6206171 15.2469207,90.7342308 C15.5807545,89.8478444 15.7476689,88.8751362 15.7476689,87.8160772 C15.7476689,86.7800412 15.5749988,85.8130887 15.2296535,84.9151908 C14.8843082,84.0172929 14.3950763,83.2460332 13.7619431,82.6013886 C13.12881,81.9567439 12.3517946,81.450245 11.4308737,81.0818767 C10.5099528,80.7135083 9.47393231,80.5293269 8.32278117,80.5293269 L6.76873489,80.5293269 L6.76873489,95.1028275 Z M0,74.7966228 L10.0149649,74.7966228 C11.7877377,74.7966228 13.4511261,75.1534743 15.0051802,75.867188 C16.5592342,76.5809018 17.9175722,77.5305872 19.0802348,78.7162729 C20.2428975,79.9019586 21.1580489,81.2833192 21.8257166,82.8603963 C22.4933843,84.4374734 22.8272131,86.0893505 22.8272131,87.8160772 C22.8272131,89.5197809 22.4991399,91.1601467 21.8429838,92.7372237 C21.1868276,94.3143008 20.2774319,95.7014171 19.1147692,96.8986143 C17.9521065,98.0958115 16.5937686,99.0512526 15.0397145,99.7649663 C13.4856605,100.47868 11.8107607,100.835532 10.0149649,100.835532 L0,100.835532 L0,74.7966228 Z M32.8076436,83.119404 L32.8076436,100.835532 L26.5569241,100.835532 L26.5569241,83.119404 L32.8076436,83.119404 Z M26.1425118,76.3161347 C26.1425118,75.8326513 26.2346025,75.3779534 26.4187867,74.9520275 C26.6029709,74.5261015 26.8562203,74.151983 27.1785426,73.8296607 C27.500865,73.5073384 27.8749835,73.2540889 28.3009094,73.0699048 C28.7268353,72.8857206 29.1815332,72.7936299 29.6650167,72.7936299 C30.1485002,72.7936299 30.6031981,72.8857206 31.029124,73.0699048 C31.4550499,73.2540889 31.8291684,73.5073384 32.1514907,73.8296607 C32.4738131,74.151983 32.7270625,74.5261015 32.9112467,74.9520275 C33.0954309,75.3779534 33.1875216,75.8326513 33.1875216,76.3161347 C33.1875216,76.7996182 33.0954309,77.2543161 32.9112467,77.680242 C32.7270625,78.106168 32.4738131,78.4802865 32.1514907,78.8026088 C31.8291684,79.1249311 31.4550499,79.3781806 31.029124,79.5623647 C30.6031981,79.7465489 30.1485002,79.8386396 29.6650167,79.8386396 C29.1815332,79.8386396 28.7268353,79.7465489 28.3009094,79.5623647 C27.8749835,79.3781806 27.500865,79.1249311 27.1785426,78.8026088 C26.8562203,78.4802865 26.6029709,78.106168 26.4187867,77.680242 C26.2346025,77.2543161 26.1425118,76.7996182 26.1425118,76.3161347 Z M48.8315874,87.6779397 C47.6804363,87.0793411 46.5523251,86.7800463 45.44722,86.7800463 C44.8716444,86.7800463 44.4054352,86.8951597 44.0485783,87.12539 C43.6917215,87.3556202 43.5132957,87.6664263 43.5132957,88.0578177 C43.5132957,88.2650249 43.5420741,88.4319393 43.5996316,88.558566 C43.6571892,88.6851926 43.7838139,88.8060617 43.9795096,88.9211768 C44.1752053,89.0362919 44.4629888,89.1398939 44.8428687,89.231986 C45.2227485,89.3240781 45.7234918,89.4391915 46.3451134,89.5773296 C48.0718401,89.922675 49.36111,90.5385316 50.2129619,91.424918 C51.0648137,92.3113044 51.4907333,93.4451712 51.4907333,94.8265526 C51.4907333,95.8625886 51.2835292,96.7950071 50.8691148,97.6238359 C50.4547004,98.4526647 49.8791334,99.1491007 49.1423967,99.7131648 C48.40566,100.277229 47.5192869,100.71466 46.4832508,101.025471 C45.4472148,101.336281 44.3075923,101.491684 43.064349,101.491684 C40.6699546,101.491684 38.3101302,100.812515 35.9848049,99.4541571 L38.2640728,95.0337588 C40.0138225,96.230956 41.6714553,96.8295456 43.2370208,96.8295456 C43.8125964,96.8295456 44.2845613,96.7029209 44.6529297,96.4496676 C45.021298,96.1964144 45.2054795,95.8740969 45.2054795,95.4827055 C45.2054795,95.2524753 45.1767011,95.0625382 45.1191435,94.9128885 C45.061586,94.7632389 44.9407169,94.6251028 44.7565328,94.4984762 C44.5723486,94.3718496 44.3018321,94.2567362 43.9449753,94.1531326 C43.5881184,94.049529 43.1219092,93.9401712 42.5463336,93.8250561 C40.6123997,93.4336647 39.2598174,92.8523421 38.4885461,92.0810709 C37.7172748,91.3097996 37.331645,90.2450008 37.331645,88.8866424 C37.331645,87.8966524 37.5158264,87.0045237 37.8841948,86.2102294 C38.2525631,85.4159351 38.7820847,84.7425218 39.4727754,84.1899692 C40.1634661,83.6374167 40.9980382,83.2114971 41.9765166,82.9121978 C42.9549951,82.6128985 44.0428166,82.4632511 45.2400138,82.4632511 C47.1969708,82.4632511 49.0963417,82.8431253 50.9381835,83.6028851 L48.8315874,87.6779397 Z M62.1273167,88.3340926 L62.1273167,100.835532 L55.8765972,100.835532 L55.8765972,88.3340926 L53.8045355,88.3340926 L53.8045355,83.119404 L55.8765972,83.119404 L55.8765972,77.8011123 L62.1273167,77.8011123 L62.1273167,83.119404 L65.6843559,83.119404 L65.6843559,88.3340926 L62.1273167,88.3340926 Z M74.2488776,91.8911319 C74.2488776,92.4897305 74.3582354,93.0365191 74.5769541,93.5315141 C74.7956728,94.026509 75.0834563,94.4581842 75.4403131,94.8265526 C75.79717,95.194921 76.2230895,95.4827045 76.7180845,95.6899117 C77.2130795,95.8971189 77.7368454,96.0007209 78.289398,96.0007209 C78.8419505,96.0007209 79.3657164,95.8971189 79.8607114,95.6899117 C80.3557064,95.4827045 80.7816259,95.194921 81.1384828,94.8265526 C81.4953396,94.4581842 81.7831231,94.026509 82.0018418,93.5315141 C82.2205606,93.0365191 82.3299183,92.5012418 82.3299183,91.9256662 C82.3299183,91.3731137 82.2205606,90.8493478 82.0018418,90.3543528 C81.7831231,89.8593578 81.4953396,89.4276826 81.1384828,89.0593142 C80.7816259,88.6909458 80.3557064,88.4031624 79.8607114,88.1959552 C79.3657164,87.988748 78.8419505,87.8851459 78.289398,87.8851459 C77.7368454,87.8851459 77.2130795,87.988748 76.7180845,88.1959552 C76.2230895,88.4031624 75.79717,88.6909458 75.4403131,89.0593142 C75.0834563,89.4276826 74.7956728,89.8536021 74.5769541,90.3370856 C74.3582354,90.8205691 74.2488776,91.3385793 74.2488776,91.8911319 Z M67.6528146,91.8220631 C67.6528146,90.5097508 67.9175753,89.2837933 68.4471049,88.1441536 C68.9766344,87.004514 69.7133601,86.0145389 70.657304,85.1741985 C71.601248,84.3338582 72.7236035,83.6719562 74.0244043,83.1884727 C75.3252051,82.7049892 76.7468554,82.4632511 78.289398,82.4632511 C79.8089175,82.4632511 81.2190565,82.6992336 82.5198573,83.1712055 C83.8206581,83.6431775 84.9487693,84.2993238 85.9042247,85.1396642 C86.8596802,85.9800045 87.6021615,86.981491 88.131691,88.1441536 C88.6612206,89.3068163 88.9259814,90.5903306 88.9259814,91.994735 C88.9259814,93.3991394 88.6554649,94.6826536 88.1144239,95.8453163 C87.5733828,97.0079789 86.8309015,98.0094654 85.8869575,98.8498058 C84.9430136,99.6901461 83.8091467,100.340537 82.4853229,100.800997 C81.1614991,101.261458 79.7283374,101.491684 78.1857949,101.491684 C76.6662754,101.491684 75.261892,101.261458 73.9726027,100.800997 C72.6833135,100.340537 71.5724693,99.6843904 70.6400368,98.8325386 C69.7076044,97.9806867 68.9766344,96.9619332 68.4471049,95.7762476 C67.9175753,94.5905619 67.6528146,93.2725136 67.6528146,91.8220631 Z M92.517555,83.119404 L98.7682744,83.119404 L98.7682744,86.0202904 C99.4359421,84.9612313 100.253247,84.1496819 101.220214,83.5856179 C102.187181,83.0215538 103.315292,82.739526 104.604582,82.739526 L105.139864,82.739526 C105.33556,82.739526 105.560031,82.7625487 105.813284,82.8085947 L105.813284,88.7830393 C104.984455,88.3686249 104.086571,88.1614208 103.119604,88.1614208 C101.669154,88.1614208 100.581332,88.593096 99.8561068,89.4564594 C99.1308816,90.3198227 98.7682744,91.5803143 98.7682744,93.237972 L98.7682744,100.835532 L92.517555,100.835532 L92.517555,83.119404 Z M116.242661,88.3340926 L116.242661,100.835532 L109.991942,100.835532 L109.991942,88.3340926 L107.91988,88.3340926 L107.91988,83.119404 L109.991942,83.119404 L109.991942,77.8011123 L116.242661,77.8011123 L116.242661,83.119404 L119.799701,83.119404 L119.799701,88.3340926 L116.242661,88.3340926 Z M128.882238,83.119404 L128.882238,100.835532 L122.631518,100.835532 L122.631518,83.119404 L128.882238,83.119404 Z M122.217106,76.3161347 C122.217106,75.8326513 122.309197,75.3779534 122.493381,74.9520275 C122.677565,74.5261015 122.930815,74.151983 123.253137,73.8296607 C123.575459,73.5073384 123.949578,73.2540889 124.375504,73.0699048 C124.80143,72.8857206 125.256127,72.7936299 125.739611,72.7936299 C126.223094,72.7936299 126.677792,72.8857206 127.103718,73.0699048 C127.529644,73.2540889 127.903763,73.5073384 128.226085,73.8296607 C128.548407,74.151983 128.801657,74.5261015 128.985841,74.9520275 C129.170025,75.3779534 129.262116,75.8326513 129.262116,76.3161347 C129.262116,76.7996182 129.170025,77.2543161 128.985841,77.680242 C128.801657,78.106168 128.548407,78.4802865 128.226085,78.8026088 C127.903763,79.1249311 127.529644,79.3781806 127.103718,79.5623647 C126.677792,79.7465489 126.223094,79.8386396 125.739611,79.8386396 C125.256127,79.8386396 124.80143,79.7465489 124.375504,79.5623647 C123.949578,79.3781806 123.575459,79.1249311 123.253137,78.8026088 C122.930815,78.4802865 122.677565,78.106168 122.493381,77.680242 C122.309197,77.2543161 122.217106,76.7996182 122.217106,76.3161347 Z M139.069875,91.8911319 C139.069875,92.4897305 139.179232,93.0365191 139.397951,93.5315141 C139.61667,94.026509 139.904453,94.4581842 140.26131,94.8265526 C140.618167,95.194921 141.044086,95.4827045 141.539081,95.6899117 C142.034076,95.8971189 142.557842,96.0007209 143.110395,96.0007209 C143.662947,96.0007209 144.186713,95.8971189 144.681708,95.6899117 C145.176703,95.4827045 145.602623,95.194921 145.95948,94.8265526 C146.316337,94.4581842 146.60412,94.026509 146.822839,93.5315141 C147.041557,93.0365191 147.150915,92.5012418 147.150915,91.9256662 C147.150915,91.3731137 147.041557,90.8493478 146.822839,90.3543528 C146.60412,89.8593578 146.316337,89.4276826 145.95948,89.0593142 C145.602623,88.6909458 145.176703,88.4031624 144.681708,88.1959552 C144.186713,87.988748 143.662947,87.8851459 143.110395,87.8851459 C142.557842,87.8851459 142.034076,87.988748 141.539081,88.1959552 C141.044086,88.4031624 140.618167,88.6909458 140.26131,89.0593142 C139.904453,89.4276826 139.61667,89.8536021 139.397951,90.3370856 C139.179232,90.8205691 139.069875,91.3385793 139.069875,91.8911319 Z M132.473811,91.8220631 C132.473811,90.5097508 132.738572,89.2837933 133.268102,88.1441536 C133.797631,87.004514 134.534357,86.0145389 135.478301,85.1741985 C136.422245,84.3338582 137.5446,83.6719562 138.845401,83.1884727 C140.146202,82.7049892 141.567852,82.4632511 143.110395,82.4632511 C144.629914,82.4632511 146.040053,82.6992336 147.340854,83.1712055 C148.641655,83.6431775 149.769766,84.2993238 150.725222,85.1396642 C151.680677,85.9800045 152.423158,86.981491 152.952688,88.1441536 C153.482217,89.3068163 153.746978,90.5903306 153.746978,91.994735 C153.746978,93.3991394 153.476462,94.6826536 152.935421,95.8453163 C152.39438,97.0079789 151.651898,98.0094654 150.707954,98.8498058 C149.76401,99.6901461 148.630144,100.340537 147.30632,100.800997 C145.982496,101.261458 144.549334,101.491684 143.006792,101.491684 C141.487272,101.491684 140.082889,101.261458 138.7936,100.800997 C137.50431,100.340537 136.393466,99.6843904 135.461034,98.8325386 C134.528601,97.9806867 133.797631,96.9619332 133.268102,95.7762476 C132.738572,94.5905619 132.473811,93.2725136 132.473811,91.8220631 Z M157.338552,83.119404 L163.589271,83.119404 L163.589271,85.3641375 C164.441123,84.3281015 165.304474,83.6316655 166.179348,83.2748086 C167.054223,82.9179518 168.078732,82.739526 169.252907,82.739526 C170.49615,82.739526 171.560949,82.9409745 172.447335,83.3438774 C173.333721,83.7467803 174.087714,84.3165915 174.709336,85.0533283 C175.215842,85.6519269 175.561182,86.3195845 175.745367,87.0563212 C175.929551,87.793058 176.021642,88.6333857 176.021642,89.5773296 L176.021642,100.835532 L169.770922,100.835532 L169.770922,91.8911319 C169.770922,91.016257 169.70761,90.3083097 169.580983,89.7672686 C169.454356,89.2262276 169.229885,88.7945524 168.907563,88.4722301 C168.631287,88.1959538 168.320481,88.000261 167.975135,87.8851459 C167.62979,87.7700308 167.261427,87.7124741 166.870036,87.7124741 C165.810977,87.7124741 164.999427,88.0290359 164.435363,88.6621691 C163.871299,89.2953022 163.589271,90.1989423 163.589271,91.3731164 L163.589271,100.835532 L157.338552,100.835532 L157.338552,83.119404 Z M211.350294,83.499282 C209.784728,81.5883711 207.850823,80.63293 205.548521,80.63293 C204.535508,80.63293 203.597334,80.8171114 202.73397,81.1854797 C201.870607,81.5538481 201.128126,82.0545914 200.506504,82.6877245 C199.884882,83.3208576 199.39565,84.0748503 199.038794,84.9497252 C198.681937,85.8246 198.503511,86.7685298 198.503511,87.7815428 C198.503511,88.8175789 198.681937,89.77302 199.038794,90.6478949 C199.39565,91.5227697 199.890638,92.2825181 200.523771,92.9271627 C201.156904,93.5718074 201.899386,94.0783063 202.751237,94.4466746 C203.603089,94.815043 204.523996,94.9992244 205.513986,94.9992244 C207.678151,94.9992244 209.623567,94.0783173 211.350294,92.2364755 L211.350294,100.248447 L210.659606,100.490188 C209.62357,100.858556 208.656618,101.129073 207.75872,101.301745 C206.860822,101.474418 205.974449,101.560753 205.099574,101.560753 C203.303778,101.560753 201.582833,101.221169 199.936687,100.541989 C198.290541,99.8628103 196.840112,98.9073692 195.585357,97.6756375 C194.330603,96.4439057 193.323361,94.9819657 192.563601,93.2897735 C191.803841,91.5975813 191.423967,89.7500115 191.423967,87.7470085 C191.423967,85.7440055 191.798085,83.9079469 192.546334,82.2387778 C193.294582,80.5696086 194.296068,79.1306913 195.550823,77.9219826 C196.805578,76.7132739 198.261762,75.7693441 199.91942,75.0901649 C201.577077,74.4109857 203.31529,74.0714012 205.134108,74.0714012 C206.170144,74.0714012 207.188898,74.180759 208.190399,74.3994777 C209.191901,74.6181964 210.245188,74.9577809 211.350294,75.4182413 L211.350294,83.499282 Z M215.04547,72.1720113 L221.29619,72.1720113 L221.29619,85.3641375 C222.148042,84.3281015 223.011392,83.6316655 223.886267,83.2748086 C224.761142,82.9179518 225.785651,82.739526 226.959825,82.739526 C229.193058,82.739526 230.879469,83.3553826 232.019109,84.5871144 C233.158749,85.8188461 233.72856,87.4822346 233.72856,89.5773296 L233.72856,100.835532 L227.47784,100.835532 L227.47784,91.8911319 C227.47784,90.993234 227.408772,90.2680196 227.270634,89.7154671 C227.132496,89.1629145 226.902269,88.736995 226.579947,88.4376957 C226.027394,87.9542122 225.359737,87.7124741 224.576954,87.7124741 C223.517895,87.7124741 222.706346,88.0290359 222.142282,88.6621691 C221.578218,89.2953022 221.29619,90.1989423 221.29619,91.3731164 L221.29619,100.835532 L215.04547,100.835532 L215.04547,72.1720113 Z M250.926672,89.4046578 C250.719465,88.529783 250.293545,87.8275913 249.648901,87.2980618 C249.004256,86.7685322 248.221485,86.5037714 247.300564,86.5037714 C246.333597,86.5037714 245.54507,86.7570209 244.93496,87.2635274 C244.32485,87.7700339 243.93922,88.4837369 243.778059,89.4046578 L250.926672,89.4046578 Z M243.605387,93.0307658 C243.605387,95.7244595 244.871635,97.0712861 247.404167,97.0712861 C248.762525,97.0712861 249.787035,96.5187419 250.477725,95.4136368 L256.521239,95.4136368 C255.301018,99.4656888 252.250514,101.491684 247.369633,101.491684 C245.873136,101.491684 244.503287,101.267213 243.260044,100.818264 C242.016801,100.369315 240.952002,99.7304361 240.065615,98.9016073 C239.179229,98.0727785 238.494304,97.0828033 238.010821,95.9316522 C237.527337,94.780501 237.285599,93.4912311 237.285599,92.0638037 C237.285599,90.5903302 237.515826,89.2607706 237.976286,88.0750849 C238.436747,86.8893992 239.092893,85.8821571 239.944745,85.0533283 C240.796597,84.2244994 241.826862,83.5856201 243.03557,83.1366712 C244.244279,82.6877222 245.608373,82.4632511 247.127892,82.4632511 C248.624389,82.4632511 249.971215,82.6877222 251.168413,83.1366712 C252.36561,83.5856201 253.378608,84.2360108 254.207436,85.0878626 C255.036265,85.9397145 255.669389,86.9814906 256.106826,88.2132224 C256.544264,89.4449541 256.762979,90.8320704 256.762979,92.3746129 L256.762979,93.0307658 L243.605387,93.0307658 Z M273.684816,88.852108 C272.602734,88.1153713 271.509157,87.7470085 270.404052,87.7470085 C269.805453,87.7470085 269.247154,87.8506105 268.729135,88.0578177 C268.211117,88.2650249 267.75642,88.5585641 267.365028,88.9384439 C266.973637,89.3183238 266.668586,89.767266 266.449868,90.2852841 C266.231149,90.8033021 266.121791,91.3846247 266.121791,92.0292693 C266.121791,92.6508909 266.231149,93.2207022 266.449868,93.7387202 C266.668586,94.2567382 266.967881,94.7056805 267.347761,95.0855603 C267.727641,95.4654402 268.182339,95.7589793 268.711868,95.9661866 C269.241398,96.1733938 269.805453,96.2769958 270.404052,96.2769958 C271.578226,96.2769958 272.671803,95.8740989 273.684816,95.0682931 L273.684816,100.386585 C272.142274,101.054253 270.680334,101.388081 269.298952,101.388081 C268.009663,101.388081 266.783706,101.169366 265.621043,100.731928 C264.45838,100.294491 263.433871,99.6671231 262.547485,98.8498058 C261.661098,98.0324884 260.953151,97.0540246 260.423622,95.914385 C259.894092,94.7747454 259.629331,93.5027424 259.629331,92.098338 C259.629331,90.6939336 259.882581,89.4104194 260.389087,88.2477567 C260.895594,87.0850941 261.586274,86.0836076 262.461149,85.2432672 C263.336024,84.4029269 264.3778,83.7467806 265.586509,83.2748086 C266.795217,82.8028367 268.090243,82.5668542 269.471624,82.5668542 C270.991144,82.5668542 272.395527,82.8891717 273.684816,83.5338163 L273.684816,88.852108 Z M284.355934,72.1720113 L284.355934,89.5082609 L290.917463,83.119404 L299.481985,83.119404 L290.606654,91.3040477 L300,100.835532 L291.228272,100.835532 L284.355934,93.61785 L284.355934,100.835532 L278.105215,100.835532 L278.105215,72.1720113 L284.355934,72.1720113 Z" id="Distortion-Check"></path>
        </g>
    </g>
</svg>
