<?xml version="1.0" encoding="UTF-8"?>
<svg width="396px" height="30px" viewBox="0 0 396 30" version="1.1" xmlns="http://www.w3.org/2000/svg" xmlns:xlink="http://www.w3.org/1999/xlink">
    <!-- Generator: Sketch 42 (36781) - http://www.bohemiancoding.com/sketch -->
    <title>Artboard</title>
    <desc>Created with Sketch.</desc>
    <defs></defs>
    <g id="Page-1" stroke="none" stroke-width="1" fill="none" fill-rule="evenodd">
        <rect id="Rectangle" fill="#005D9A" x="0" y="0" width="396" height="31"></rect>
        <g id="Artboard" fill="#FFFFFF">
            <path d="M73.6022206,19.8648477 L80.883074,19.8648477 C80.9137502,22.3883188 81.9326568,22.5881438 84.0289555,22.5881438 L92.9485456,22.5881438 C94.48866,22.5881438 96.0643243,22.4215752 96.0643243,20.5878873 C96.0643243,18.5216914 95.209406,18.3900994 85.8322539,18.3900994 C74.8817311,18.3900994 73.6351903,17.0779059 73.6351903,11.2411247 C73.6351903,6.94703811 74.0273862,3.63430141 83.2095871,3.63430141 L93.3734245,3.63430141 C101.76722,3.63430141 102.553619,6.48947621 102.553619,10.6519707 L102.553619,11.4056864 L95.2753454,11.4056864 C95.2753454,9.66832731 95.0781006,8.94758131 91.7346878,8.94758131 L83.6700159,8.94758131 C82.0286989,8.94758131 80.9137502,9.50376558 80.9137502,10.7835628 C80.9137502,12.8471784 81.7984845,12.9128311 89.6028392,12.8801481 C100.914882,12.8471784 103.539842,13.537535 103.539842,20.4540017 C103.539842,26.8495474 101.37273,27.8965499 91.7017181,27.8965499 L82.881037,27.8965499 C76.2575704,27.8965499 73.6022206,26.6523026 73.6022206,21.5032978 L73.6022206,19.8648477 Z" id="Fill-41"></path>
            <path d="M43.5812287,27.6362041 L50.8620822,27.6362041 L50.8620822,21.4731664 L62.3028499,21.4731664 C64.5662905,21.4731664 65.2873232,22.2899545 65.2873232,24.7836095 L65.2873232,27.6362041 L72.5653097,27.6362041 L72.5653097,23.6024347 C72.5653097,19.7028376 70.7648781,18.7492969 68.5974796,18.3573877 L68.5974796,18.291735 C71.9408925,17.5050496 72.663932,15.6340916 72.663932,12.4552405 L72.663932,10.9478091 C72.663932,6.68411203 71.1544938,3.89717015 65.5476403,3.89717015 L43.5812287,3.89717015 L43.5812287,27.6362041 Z M50.8620822,9.79989069 L62.2374839,9.79989069 C64.5336075,9.79989069 65.5831903,10.1917999 65.5831903,12.2906788 L65.5831903,13.0773642 C65.5831903,14.7817536 64.859864,15.5710192 62.8922905,15.5710192 L50.8620822,15.5710192 L50.8620822,9.79989069 Z" id="Fill-40"></path>
            <polygon id="Fill-39" points="34.5986808 27.6361467 41.876954 27.6361467 41.876954 3.89711281 34.5986808 3.89711281"></polygon>
            <path d="M2.46834579,12.2249974 C2.46834579,5.27556104 6.37052313,3.63424407 12.9280503,3.63424407 L21.4835405,3.63424407 C31.8446226,3.63424407 33.1900725,5.86471499 33.1241331,12.5868039 L25.8458599,12.5868039 L25.8458599,11.9291303 C25.8458599,10.2247409 24.5990324,9.73392265 22.4367944,9.73392265 L14.5011344,9.73392265 C10.6646097,9.73392265 9.9438637,11.5372211 9.9438637,14.4884381 L9.9438637,17.0448788 C9.9438637,20.4866273 10.6646097,21.7991075 14.1066449,21.7991075 L21.8780299,21.7991075 C25.1580836,21.7991075 26.1391468,21.4731377 26.1391468,18.5216341 L33.4200002,18.5216341 L33.4200002,20.7495248 C33.4200002,24.7506112 31.975928,27.8964926 24.6646851,27.8964926 L12.9280503,27.8964926 C6.37052313,27.8964926 2.46834579,26.2580425 2.46834579,19.3057392 L2.46834579,12.2249974 Z" id="Fill-38"></path>
            <text id="Distortion-Check" font-family="Futura-Bold, Futura" font-size="31" font-weight="bold">
                <tspan x="117.631368" y="26.8792594">Distortion Check</tspan>
            </text>
        </g>
    </g>
</svg>