<?xml version="1.0" encoding="UTF-8"?>
<svg width="273px" height="110px" viewBox="0 0 273 110" version="1.1" xmlns="http://www.w3.org/2000/svg" xmlns:xlink="http://www.w3.org/1999/xlink">
    <!-- Generator: Sketch 42 (36781) - http://www.bohemiancoding.com/sketch -->
    <title>Artboard</title>
    <desc>Created with Sketch.</desc>
    <defs></defs>
    <g id="Page-1" stroke="none" stroke-width="1" fill="none" fill-rule="evenodd">
        <g id="Artboard" fill="#005D9A">
            <path d="M191.157577,50.743443 L210.534546,50.743443 C210.616186,57.4593068 213.327863,57.9911128 218.906867,57.9911128 L242.645103,57.9911128 C246.743901,57.9911128 250.937311,57.5478139 250.937311,52.6677111 C250.937311,47.1688211 248.662066,46.8186073 223.706093,46.8186073 C194.562815,46.8186073 191.245321,43.3263887 191.245321,27.7926155 C191.245321,16.3645074 192.289096,7.54812401 216.726233,7.54812401 L243.775859,7.54812401 C266.114766,7.54812401 268.207656,15.1467706 268.207656,26.224665 L268.207656,28.2305735 L248.837554,28.2305735 C248.837554,23.6068363 248.312615,21.6886721 239.414591,21.6886721 L217.9516,21.6886721 C213.583465,21.6886721 210.616186,23.1688783 210.616186,26.5748788 C210.616186,32.0669019 212.970782,32.2416273 233.740976,32.1546461 C263.846388,32.0669019 270.832351,33.9041889 270.832351,52.3113934 C270.832351,69.3322398 265.064888,72.11869 239.326847,72.11869 L215.851843,72.11869 C198.224418,72.11869 191.157577,68.8073007 191.157577,55.1039476 L191.157577,50.743443 Z" id="Fill-41"></path>
            <path d="M111.260925,71.4258161 L130.637893,71.4258161 L130.637893,55.023757 L161.085889,55.023757 C167.109718,55.023757 169.028646,57.1975239 169.028646,63.8340364 L169.028646,71.4258161 L188.397984,71.4258161 L188.397984,60.6905055 C188.397984,50.3122757 183.606389,47.7745612 177.838162,46.7315498 L177.838162,46.5568244 C186.736186,44.4631718 188.660454,39.4838799 188.660454,31.0238143 L188.660454,27.0119975 C188.660454,15.6647665 184.643296,8.24771223 169.721443,8.24771223 L111.260925,8.24771223 L111.260925,71.4258161 Z M130.637893,23.9569737 L160.911927,23.9569737 C167.022737,23.9569737 169.816054,24.9999851 169.816054,30.5858564 L169.816054,32.679509 C169.816054,37.215502 167.891023,39.3160215 162.654603,39.3160215 L130.637893,39.3160215 L130.637893,23.9569737 Z" id="Fill-40"></path>
            <polygon id="Fill-39" points="87.3551353 71.4256635 106.725237 71.4256635 106.725237 8.24755963 87.3551353 8.24755963"></polygon>
            <path d="M1.84476236,30.4110547 C1.84476236,11.916106 12.2298592,7.54797141 29.6817965,7.54797141 L52.4510317,7.54797141 C80.0255963,7.54797141 83.6063221,13.4840564 83.4308338,31.3739518 L64.0607322,31.3739518 L64.0607322,29.623646 C64.0607322,25.087653 60.7424759,23.7814091 54.9879832,23.7814091 L33.8683388,23.7814091 C23.6579673,23.7814091 21.7398031,28.5806346 21.7398031,36.4348839 L21.7398031,43.2384919 C21.7398031,52.398222 23.6579673,55.8912037 32.8184605,55.8912037 L53.5009099,55.8912037 C62.2303121,55.8912037 64.8412739,55.0236807 64.8412739,47.1686685 L84.2182425,47.1686685 L84.2182425,53.0978866 C84.2182425,63.7462159 80.3750471,72.1185374 60.9172013,72.1185374 L29.6817965,72.1185374 C12.2298592,72.1185374 1.84476236,67.7580328 1.84476236,49.2554541 L1.84476236,30.4110547 Z" id="Fill-38"></path>
            <text id="Distortion-Check" font-family="Futura-Bold, Futura" font-size="31" font-weight="bold">
                <tspan x="-0.388209686" y="107.487672">Distortion Check</tspan>
            </text>
        </g>
    </g>
</svg>